<!--?xml version="1.0" encoding="utf-8"?-->
<!-- Svg Vector Icons : http://www.onlinewebfonts.com/icon -->

<svg version="1.1" xmlns="http://www.w3.org/2000/svg" xmlns:xlink="http://www.w3.org/1999/xlink" x="0px" y="0px" viewBox="0 0 256 256" enable-background="new 0 0 256 256" xml:space="preserve">
<metadata> Svg Vector Icons : http://www.onlinewebfonts.com/icon </metadata>
<g><g><g><path fill="#ffffff" data-title="Layer 0" xs="0" d="M115.8,10.6c-13.1,1.3-27.6,5.5-39.8,11.6C52,34.1,34.1,51.9,22.2,76c-28.7,57.7-5.2,128,52.4,157.2c58.1,29.5,129,6.3,158.5-51.9c23.2-45.5,14.4-100.6-21.8-136.7C186.4,19.6,151.2,7,115.8,10.6z M138.2,103.3c27.3,15.8,35.5,20.8,36.1,21.9c1.3,2.6,1,5.8-0.7,7.6c-0.9,0.9-17.2,10.6-36.3,21.6c-37.1,21.4-36.7,21.2-40.4,19.1c-3.4-2-3.3-0.6-3.3-44.7c0-44.4-0.1-43,3.4-45.2c1.3-0.8,2.4-1.1,3.8-0.9C102.2,82.9,114.5,89.7,138.2,103.3z"/></g></g></g>
</svg>